# xmcd
#
# Track frame offsets:
#	150
#	14840
#	35688
#	56419
#	74338
#	88611
#	114657
#	135200
#	156720
#	173468
#	188053
#	211542
#	240489
#	252709
#	275765
#	294544
#	315866
#
# Disc length: 4414 seconds
#
# Revision: 1
# Processed by: cddbd v1.5.1PL0 Copyright (c) Steve Scherf et al.
# Submitted via: audiograbber 1.83.01
#
DISCID=f2113c11
DTITLE=Lee Clayton - Border Affair/Naked Child
DYEAR=1900
DGENRE=Blues
TTITLE0=Silver Stallion
TTITLE1=If you can touch her at all
TTITLE2=Back home in Tennessee
TTITLE3=Border Affair
TTITLE4=Old number nine
TTITLE5=Like a Diamond
TTITLE6=Tequila is addictive
TTITLE7=My true Love
TTITLE8=Rainbow in the sky
TTITLE9=Saturday night special
TTITLE10=I ride alone
TTITLE11=10.000 years/Sexual moon
TTITLE12=Wind and Rain
TTITLE13=I love you
TTITLE14=Jaded virgin
TTITLE15=If I can do it
TTITLE16=Oh How lucky I am
EXTD=
EXTT0=
EXTT1=
EXTT2=
EXTT3=
EXTT4=
EXTT5=
EXTT6=
EXTT7=
EXTT8=
EXTT9=
EXTT10=
EXTT11=
EXTT12=
EXTT13=
EXTT14=
EXTT15=
EXTT16=
PLAYORDER=
